HIERARCHY
ROOT Hips
{
 OFFSET 0.000000 0.000000 0.000000
 CHANNELS 6 Xposition Yposition Zposition Yrotation Xrotation Zrotation
 JOINT Chest
 {
  OFFSET 0.000000 9.585900 0.002600
  CHANNELS 3 Yrotation Xrotation Zrotation
  JOINT Chest2
  {
   OFFSET 0.000000 9.601200 -0.005300
   CHANNELS 3 Yrotation Xrotation Zrotation
   JOINT Chest3
   {
    OFFSET 0.000000 9.561800 0.000000
    CHANNELS 3 Yrotation Xrotation Zrotation
    JOINT Chest4
    {
     OFFSET 0.000000 9.552100 0.000000
     CHANNELS 3 Yrotation Xrotation Zrotation
     JOINT Neck
     {
      OFFSET 0.000000 14.453000 0.000000
      CHANNELS 3 Yrotation Xrotation Zrotation
      JOINT Head
      {
       OFFSET 0.000000 8.936500 -0.011300
       CHANNELS 3 Yrotation Xrotation Zrotation
       End Site
       {
        OFFSET 0.000000 17.073600 -0.006000
       }
      }
     }
     JOINT RightCollar
     {
      OFFSET -2.921100 9.558500 0.000000
      CHANNELS 3 Yrotation Xrotation Zrotation
      JOINT RightShoulder
      {
       OFFSET -13.519700 0.000000 0.000000
       CHANNELS 3 Yrotation Xrotation Zrotation
       JOINT RightElbow
       {
        OFFSET 0.000000 -29.696600 0.000000
        CHANNELS 3 Yrotation Xrotation Zrotation
        JOINT RightWrist
        {
         OFFSET 0.000000 -24.004700 0.000000
         CHANNELS 3 Yrotation Xrotation Zrotation
         End Site
         {
          OFFSET 0.000000 -17.728500 0.000000
         }
        }
       }
      }
     }
     JOINT LeftCollar
     {
      OFFSET 2.921100 9.558500 0.000000
      CHANNELS 3 Yrotation Xrotation Zrotation
      JOINT LeftShoulder
      {
       OFFSET 13.519700 0.000000 0.000000
       CHANNELS 3 Yrotation Xrotation Zrotation
       JOINT LeftElbow
       {
        OFFSET 0.000000 -29.696600 0.000000
        CHANNELS 3 Yrotation Xrotation Zrotation
        JOINT LeftWrist
        {
         OFFSET 0.000000 -24.004700 0.000000
         CHANNELS 3 Yrotation Xrotation Zrotation
         End Site
         {
          OFFSET 0.000000 -17.728500 0.000000
         }
        }
       }
      }
     }
    }
   }
  }
 }
 JOINT RightHip
 {
  OFFSET -7.771700 -0.012900 -0.001300
  CHANNELS 3 Yrotation Xrotation Zrotation
  JOINT RightKnee
  {
   OFFSET 0.000000 -40.869800 0.001200
   CHANNELS 3 Yrotation Xrotation Zrotation
   JOINT RightAnkle
   {
    OFFSET 0.000000 -39.717900 0.002100
    CHANNELS 3 Yrotation Xrotation Zrotation
    JOINT RightToe
    {
     OFFSET 0.000000 -4.965400 11.033500
     CHANNELS 3 Yrotation Xrotation Zrotation
     End Site
     {
      OFFSET 0.000000 -1.423100 5.872300
     }
    }
   }
  }
 }
 JOINT LeftHip
 {
  OFFSET 7.771700 -0.012900 -0.001300
  CHANNELS 3 Yrotation Xrotation Zrotation
  JOINT LeftKnee
  {
   OFFSET 0.000000 -40.869800 0.001200
   CHANNELS 3 Yrotation Xrotation Zrotation
   JOINT LeftAnkle
   {
    OFFSET 0.000000 -39.717900 0.002100
    CHANNELS 3 Yrotation Xrotation Zrotation
    JOINT LeftToe
    {
     OFFSET 0.000000 -4.965400 11.033500
     CHANNELS 3 Yrotation Xrotation Zrotation
     End Site
     {
      OFFSET 0.000000 -1.423100 5.872300
     }
    }
   }
  }
 }
}
MOTION
Frames: 11
Frame Time: 0.008333
0.000000 85.388000 0.000000 0.000000 -5.767877 0.000000 0.000000 11.653817 0.000000 0.000000 -5.885947 0.000000 0.000000 -0.000000 0.000000 0.000000 -0.000000 0.000000 0.000000 12.528835 0.000000 0.000000 0.711642 0.000000 0.000000 -0.000000 0.000000 0.000000 0.000000 -90.000000 0.000000 -2.309062 0.000000 0.000000 2.309062 0.000000 0.000000 -0.000000 0.000000 0.000000 -0.000000 90.000000 0.000000 -2.309062 0.000000 0.000000 2.309062 0.000000 0.000000 8.520406 0.000000 0.000000 1.905762 0.000000 -0.000000 -4.658285 0.000000 0.000000 -0.000000 0.000000 0.000000 8.520406 0.000000 0.000000 1.905762 0.000000 -0.000000 -4.658285 0.000000 0.000000 -0.000000 0.000000
-17.936173 62.060098 12.229326 174.546059 -51.192874 -1.126296 4.028285 26.105378 0.996301 0.585267 4.374973 0.118821 0.926286 6.868849 0.234059 3.072240 21.351359 1.113185 -1.912302 18.815164 2.077608 -4.159973 -0.747294 4.410502 6.234454 6.188098 6.190857 -16.069897 -16.564948 -13.308049 -78.527011 -42.101000 124.952784 -6.358547 -13.018522 -19.748323 -8.388617 3.171604 0.031076 7.263261 -11.644317 14.329167 93.709700 -50.519036 -124.784588 20.708773 -7.985947 4.443617 2.211318 -16.064673 -4.395782 -2.765175 61.351391 -5.912523 2.035653 -7.462157 10.570097 0.198992 -0.480988 0.089284 -1.618329 -13.000293 5.570503 21.775471 77.719736 21.765292 0.725139 -12.225935 -2.069105 0.229824 0.567688 0.106054
-17.938465 62.061295 12.233600 174.547656 -51.231872 -1.122584 4.021899 26.124975 0.994999 0.578053 4.327721 0.130475 0.934755 6.927268 0.222832 3.069315 21.333646 1.120488 -1.996273 18.847863 2.017868 -4.294885 -0.666097 4.321473 6.243469 6.210077 6.198784 -15.697201 -16.454974 -13.473608 -78.461719 -42.303586 125.019026 -6.226591 -12.839419 -19.643008 -8.422932 3.151720 -0.005064 6.914687 -11.554239 14.517417 93.896635 -50.840836 -125.027560 20.482558 -7.729660 4.259128 2.204420 -16.024350 -4.397226 -2.763481 61.344482 -5.918218 2.035104 -7.464430 10.571260 0.202084 -0.476289 0.089911 -1.622843 -12.961940 5.561061 21.786203 77.711403 21.773292 0.723893 -12.213375 -2.069636 0.229261 0.563137 0.105036
-17.939683 62.066267 12.235898 174.523495 -51.302539 -1.105285 4.034093 26.175552 1.000227 0.575048 4.298645 0.135142 0.932759 6.938368 0.222639 3.076540 21.362501 1.118215 -2.068209 18.856473 1.964908 -4.414195 -0.593042 4.232865 6.251653 6.213400 6.212538 -15.329063 -16.340152 -13.638902 -78.357137 -42.474885 125.063316 -6.099760 -12.672689 -19.551321 -8.448891 3.140274 -0.026764 6.552190 -11.484107 14.697726 93.939626 -51.089046 -125.151389 20.249075 -7.487471 4.077190 2.209577 -15.953186 -4.393358 -2.748110 61.338958 -5.909193 2.038171 -7.459199 10.569471 0.200670 -0.481075 0.089413 -1.610206 -12.886816 5.557933 21.788798 77.702372 21.773680 0.723821 -12.197166 -2.064989 0.221339 0.548961 0.099122
-17.938668 62.065314 12.243948 174.505497 -51.327976 -1.110503 4.044729 26.123563 1.029354 0.580518 4.337770 0.131375 0.930381 6.915940 0.226168 3.079824 21.380657 1.119730 -2.134478 18.893690 1.906468 -4.516701 -0.532445 4.143866 6.261972 6.244664 6.271175 -14.955822 -16.231119 -13.850307 -78.221657 -42.619235 125.081990 -5.977014 -12.506836 -19.480784 -8.474778 3.168203 -0.060588 6.173082 -11.414296 14.881720 93.857264 -51.271615 -125.159685 20.002365 -7.262620 3.898395 2.213193 -15.930754 -4.374348 -2.752382 61.331841 -5.912108 2.060767 -7.476702 10.574946 0.181878 -0.465584 0.080984 -1.605215 -12.863125 5.567421 21.824604 77.693849 21.811084 0.761761 -12.178891 -2.059459 0.184439 0.537751 0.083845
-17.945539 62.063267 12.252401 174.505206 -51.343964 -1.083975 4.030309 26.109893 1.005508 0.580979 4.338270 0.132309 0.930292 6.927614 0.224275 3.087109 21.333837 1.137638 -2.199063 18.954825 1.838903 -4.603567 -0.485562 4.057210 6.252069 6.319794 6.288569 -14.574118 -16.126326 -14.023703 -78.065785 -42.744847 125.071787 -5.864724 -12.338167 -19.422824 -8.506409 3.225200 -0.113032 5.784668 -11.338625 15.068219 93.680702 -51.411727 -125.079294 19.752765 -7.059895 3.729703 2.222437 -15.915415 -4.399089 -2.753899 61.321655 -5.912803 2.026440 -7.461027 10.566503 0.211639 -0.471983 0.093603 -1.599514 -12.849234 5.534249 21.805028 77.676760 21.794674 0.744834 -12.180411 -2.069199 0.219782 0.556520 0.096631
-17.948814 62.063681 12.259615 174.495915 -51.375308 -1.072224 4.034375 26.120922 1.004963 0.581777 4.338771 0.133098 0.934520 6.895303 0.234791 3.090712 21.362750 1.137259 -2.249446 18.974545 1.787053 -4.678666 -0.449176 3.977172 6.238251 6.352679 6.304797 -14.188103 -16.014260 -14.189247 -77.894292 -42.857006 125.037357 -5.763725 -12.173465 -19.374549 -8.541100 3.249392 -0.151828 5.402087 -11.257640 15.251137 93.424948 -51.532635 -124.929707 19.509095 -6.887509 3.576197 2.228975 -15.883581 -4.406389 -2.744043 61.311812 -5.900253 2.023812 -7.462018 10.568249 0.216379 -0.470070 0.091917 -1.593233 -12.816427 5.523432 21.794897 77.663335 21.789348 0.734894 -12.175002 -2.070826 0.222126 0.561269 0.096405
-17.951411 62.066025 12.265557 174.478748 -51.417011 -1.058649 4.047032 26.155932 1.008398 0.582165 4.338956 0.133382 0.941399 6.879949 0.240582 3.098949 21.362591 1.143615 -2.293052 18.991365 1.739245 -4.742849 -0.418354 3.902508 6.215426 6.389258 6.328563 -13.801289 -15.904137 -14.360877 -77.698430 -42.956851 124.986268 -5.672527 -12.019052 -19.342639 -8.585006 3.280698 -0.191729 5.029137 -11.172733 15.431110 93.113280 -51.643126 -124.724315 19.279362 -6.747638 3.444667 2.238924 -15.840040 -4.406862 -2.737588 61.300467 -5.892220 2.021114 -7.460117 10.567388 0.218334 -0.471496 0.092973 -1.583260 -12.772973 5.516497 21.787141 77.650730 21.784393 0.737051 -12.158652 -2.073553 0.214608 0.554050 0.096358
-17.954061 62.065521 12.273871 174.467212 -51.432088 -1.051296 4.060925 26.149306 1.020569 0.583652 4.339674 0.134018 0.940196 6.879460 0.240802 3.106850 21.361251 1.151262 -2.321919 19.010823 1.711280 -4.802532 -0.394952 3.816657 6.185900 6.435473 6.356609 -13.419124 -15.800908 -14.535441 -77.477979 -43.043640 124.923957 -5.591934 -11.870715 -19.331793 -8.632925 3.322779 -0.233714 4.662220 -11.081922 15.610314 92.783853 -51.748225 -124.490865 19.075191 -6.634755 3.352317 2.245456 -15.824992 -4.406377 -2.734806 61.288134 -5.888690 2.024383 -7.458978 10.567362 0.217140 -0.479829 0.096193 -1.578504 -12.757703 5.512334 21.783870 77.640186 21.782112 0.743775 -12.156558 -2.077799 0.213937 0.560325 0.097272
-17.955856 62.065535 12.281873 174.434904 -51.446472 -1.032949 4.087346 26.127648 1.036294 0.582541 4.352875 0.132096 0.944987 6.882594 0.243560 3.114308 21.360036 1.159057 -2.348781 19.026384 1.685579 -4.824892 -0.380626 3.782269 6.162132 6.467490 6.365177 -13.053238 -15.678566 -14.689971 -77.255059 -43.115568 124.857116 -5.518279 -11.721375 -19.346809 -8.665469 3.354473 -0.258405 4.286640 -10.963103 15.776132 92.461979 -51.852633 -124.253503 18.902637 -6.544408 3.315342 2.259182 -15.812680 -4.399480 -2.746176 61.273122 -5.900267 2.034819 -7.449728 10.571637 0.218283 -0.482950 0.093924 -1.563572 -12.740380 5.509069 21.811784 77.627357 21.809881 0.763582 -12.158518 -2.077641 0.199575 0.569636 0.090642
-17.959725 62.068137 12.287482 174.432286 -51.475618 -1.023850 4.087864 26.152594 1.032350 0.586085 4.338556 0.136863 0.949056 6.887133 0.242753 3.112766 21.366090 1.161658 -2.371443 19.027843 1.650765 -4.868628 -0.361039 3.697183 6.133908 6.513600 6.391920 -12.669185 -15.577921 -14.854869 -77.037808 -43.175104 124.787757 -5.448774 -11.571687 -19.384087 -8.689985 3.377455 -0.276328 3.913636 -10.827469 15.942545 92.157464 -51.955938 -124.017362 18.759611 -6.472791 3.340459 2.259129 -15.779561 -4.410047 -2.734155 61.262393 -5.889129 2.036538 -7.452827 10.582857 0.219332 -0.481952 0.085668 -1.560432 -12.708689 5.495718 21.806824 77.612714 21.807402 0.758596 -12.146493 -2.077791 0.203656 0.567981 0.089888
